<svg id="Ebene_1" data-name="Ebene 1" xmlns="http://www.w3.org/2000/svg" viewBox="0 0 468 314"><defs><style>.cls-1{fill:#fff;}</style></defs><title>Zeichenfläche 1</title><circle cx="158.16" cy="155.91" r="151.5"/><path class="cls-1" d="M97.47,220.83v-142A9.84,9.84,0,0,1,107.31,69h6.18a12.3,12.3,0,0,1,10.39,5.72l48.19,76.07a457.31,457.31,0,0,1,29,52.53l.48-.24c-1.92-21.58-2.4-41.25-2.4-66.44V78.83A9.84,9.84,0,0,1,209,69h0a9.83,9.83,0,0,1,9.83,9.83v142a9.84,9.84,0,0,1-9.83,9.84h-5.83a9.82,9.82,0,0,1-8.33-4.62L146.4,148.63c-11.27-18-22.06-36.46-30.22-54l-.72.25c1.2,20.38,1.68,39.81,1.68,66.68v59.24a9.84,9.84,0,0,1-9.83,9.84h0A9.85,9.85,0,0,1,97.47,220.83Z"/><path d="M328,174.14l-10.7,31c-1.82,5-3.42,9.56-4.67,14.12h-.34a142.11,142.11,0,0,0-4.44-14.12l-3.4-9.74q-2,7.19-4.7,14.07l7.53,19.81h9.56l21.64-55.11Z"/><path class="cls-1" d="M297,174.14H286.3l13.42,35.3q2.68-6.87,4.7-14.07Z"/><path d="M430,149l16.75,7.5a6.74,6.74,0,0,1,3.36,2.74,3.66,3.66,0,0,1,.06,3.38,4.09,4.09,0,0,1-2.24,2.2,4.58,4.58,0,0,1-3.65-.33l-23.61-10.58a5.61,5.61,0,0,1-3.15-3,4.69,4.69,0,0,1,.05-3.73,9,9,0,0,1,2.24-2.68,12.16,12.16,0,0,1,3.24-2.15q6.26-2.51,11.1-4.13a54.86,54.86,0,0,1,6.77-2,31.45,31.45,0,0,0,6.06-1.78,16.48,16.48,0,0,0,4.39-2.65,10,10,0,0,0,2.64-3.46,7.56,7.56,0,0,0,.67-4.11,7.48,7.48,0,0,0-1.53-3.71,8.59,8.59,0,0,0-3.27-2.55,8.23,8.23,0,0,0-8.26.73,17.1,17.1,0,0,0-2.26,2.15,12.09,12.09,0,0,1-3.18,2.54,3.71,3.71,0,0,1-3.29-.09,4,4,0,0,1-2.19-2.25,4.28,4.28,0,0,1,.24-3.37,13.31,13.31,0,0,1,3.06-4.17,14.39,14.39,0,0,1,4.93-3,16.07,16.07,0,0,1,6.42-.92,21.08,21.08,0,0,1,7.64,2,22.45,22.45,0,0,1,7.68,5.29,13.79,13.79,0,0,1,2.68,4.59,14.47,14.47,0,0,1-.46,10.66,15,15,0,0,1-5.22,6.35,24.46,24.46,0,0,1-6.31,3.29q-2.88.93-9.48,2.71a56.32,56.32,0,0,0-9.37,3.16A18.48,18.48,0,0,0,430,149Z"/><path d="M352.33,203.52c.23,13.55,8.88,19.12,18.9,19.12a36.31,36.31,0,0,0,15.26-2.84L388.2,227c-3.53,1.59-9.57,3.42-18.33,3.42-17,0-27.1-11.16-27.1-27.78s9.79-29.72,25.84-29.72c18,0,22.77,15.83,22.77,26a36.77,36.77,0,0,1-.34,4.67Zm29.38-7.18c.11-6.37-2.62-16.28-13.89-16.28-10.14,0-14.58,9.34-15.37,16.28Z"/><path d="M403.79,191.33c0-6.49-.11-12.06-.46-17.19h8.77l.34,10.82h.46c2.5-7.4,8.54-12.07,15.25-12.07a10.76,10.76,0,0,1,2.85.34v9.45a14.92,14.92,0,0,0-3.42-.34c-7.05,0-12.06,5.35-13.43,12.87a27.84,27.84,0,0,0-.46,4.66v29.38h-9.9Z"/><path class="cls-1" d="M241.67,203.52c.23,13.55,8.89,19.12,18.91,19.12a36.29,36.29,0,0,0,15.25-2.84l1.71,7.17c-3.53,1.59-9.56,3.42-18.33,3.42-17,0-27.1-11.16-27.1-27.78s9.79-29.72,25.85-29.72c18,0,22.77,15.83,22.77,26a38.76,38.76,0,0,1-.34,4.67Zm29.38-7.18c.11-6.37-2.62-16.28-13.89-16.28-10.13,0-14.57,9.34-15.37,16.28Z"/></svg>